<svg xmlns="http://www.w3.org/2000/svg" width="32" height="40" viewBox="0 0 32 40" fill="none">
  <path d="M16 38V16" stroke="#9B7DB8" stroke-width="2" stroke-linecap="round"/>
  <!-- Bell flower head -->
  <path d="M16 16C16 16 8 14 8 8C8 4 12 2 16 6C20 2 24 4 24 8C24 14 16 16 16 16Z" fill="#C9A0DC"/>
  <!-- Inner petal highlight -->
  <path d="M16 14C16 14 11 12 11 8C11 6 13 5 16 7C19 5 21 6 21 8C21 12 16 14 16 14Z" fill="#E8D5F0" opacity="0.45"/>
  <!-- Center -->
  <circle cx="16" cy="8" r="2" fill="#E8D5F0"/>
  <circle cx="16" cy="8" r="0.8" fill="#9B7DB8" opacity="0.6"/>
  <!-- Side bud stems -->
  <path d="M12 26L7 22" stroke="#9B7DB8" stroke-width="1.5" stroke-linecap="round"/>
  <path d="M20 26L25 22" stroke="#9B7DB8" stroke-width="1.5" stroke-linecap="round"/>
  <!-- Side buds -->
  <path d="M7 22Q5 20 7 18Q9 20 7 22Z" fill="#C9A0DC" opacity="0.7"/>
  <path d="M25 22Q23 20 25 18Q27 20 25 22Z" fill="#C9A0DC" opacity="0.7"/>
  <circle cx="7" cy="20" r="1" fill="#E8D5F0" opacity="0.4"/>
  <circle cx="25" cy="20" r="1" fill="#E8D5F0" opacity="0.4"/>
  <!-- Leaf -->
  <path d="M15 32Q11 30 9 32Q11 33 15 33Z" fill="#9B7DB8" opacity="0.4"/>
</svg>
