<svg xmlns="http://www.w3.org/2000/svg" width="32" height="40" viewBox="0 0 32 40" fill="none">
 <ellipse cx="16" cy="38" rx="4" ry="1.2" fill="#4CA1A3" opacity="0.2"/>
 <path d="M13 38C12 37 11 37.5 12 38.5" stroke="#4CA1A3" stroke-width="1" stroke-linecap="round" opacity="0.4"/>
 <path d="M19 38C20 37 21 37.5 20 38.5" stroke="#4CA1A3" stroke-width="1" stroke-linecap="round" opacity="0.35"/>
 <path d="M14 38C10 32 8 28 12 24C16 20 12 16 9 12C7 9 9 5 13 2" stroke="#4CA1A3" stroke-width="2.5" stroke-linecap="round" opacity="0.15"/>
 <path d="M12 38C9 32 7 28 13 24C19 20 13 16 10 12C7 8 10 4 13 2" stroke="#4CA1A3" stroke-width="2" stroke-linecap="round" opacity="0.75"/>
 <path d="M13 30C10 27 11 24 14 22C16 20 14 17 12 14" stroke="#7BBFC0" stroke-width="1" stroke-linecap="round" opacity="0.4"/>
 <path d="M20 38C24 34 26 30 21 26C15 22 21 18 24 14C27 10 24 6 21 4" stroke="#4CA1A3" stroke-width="1.8" stroke-linecap="round" opacity="0.7"/>
 <path d="M20 34C23 31 22 28 20 26C17 24 19 20 22 16" stroke="#7BBFC0" stroke-width="0.8" stroke-linecap="round" opacity="0.35"/>
 <path d="M11 34C10 32 12 30 11 28" stroke="#4CA1A3" stroke-width="0.4" stroke-linecap="round" opacity="0.3"/>
 <circle cx="7" cy="8" r="2.5" fill="#4CA1A3" opacity="0.25"/>
 <circle cx="7" cy="8" r="1.2" fill="#7BBFC0" opacity="0.5"/>
 <circle cx="26" cy="14" r="2" fill="#4CA1A3" opacity="0.25"/>
 <circle cx="26" cy="14" r="1" fill="#7BBFC0" opacity="0.45"/>
 <circle cx="5" cy="18" r="1.8" fill="#4CA1A3" opacity="0.2"/>
 <circle cx="5" cy="18" r="0.9" fill="#7BBFC0" opacity="0.4"/>
 <circle cx="27" cy="24" r="1.5" fill="#4CA1A3" opacity="0.2"/>
 <circle cx="27" cy="24" r="0.7" fill="#7BBFC0" opacity="0.4"/>
 <circle cx="4" cy="12" r="1" fill="#7BBFC0" opacity="0.35"/>
 <circle cx="16" cy="5" r="0.8" fill="#7BBFC0" opacity="0.3"/>
 <circle cx="28" cy="20" r="0.7" fill="#7BBFC0" opacity="0.3"/>
</svg>