<svg xmlns="http://www.w3.org/2000/svg" width="32" height="40" viewBox="0 0 32 40" fill="none">
  <!-- Main kelp frond -->
  <path d="M12 38Q8 30 14 24Q20 18 10 12Q6 8 12 2L15 2Q9 8 15 12Q21 18 15 24Q9 30 15 38Z" fill="#4CA1A3" opacity="0.8"/>
  <!-- Secondary frond -->
  <path d="M20 38Q26 32 20 26Q14 22 22 16Q26 12 22 6L19 6Q25 12 19 16Q13 22 19 26Q25 32 19 38Z" fill="#4CA1A3" opacity="0.65"/>
  <!-- Frond highlights -->
  <path d="M13 30Q9 26 13 22Q16 18 12 14L13.5 14Q17.5 18 14 22Q10 26 14 30Z" fill="#7BBFC0" opacity="0.35"/>
  <path d="M20 34Q24 30 20 26Q17 22 20 18L19 18Q16 22 19 26Q23 30 19 34Z" fill="#7BBFC0" opacity="0.3"/>
  <!-- Bubbles -->
  <circle cx="7" cy="8" r="2.5" fill="#4CA1A3" opacity="0.3"/>
  <circle cx="7" cy="8" r="1.2" fill="#7BBFC0" opacity="0.45"/>
  <circle cx="25" cy="14" r="2" fill="#4CA1A3" opacity="0.3"/>
  <circle cx="25" cy="14" r="1" fill="#7BBFC0" opacity="0.45"/>
  <circle cx="9" cy="20" r="1.8" fill="#4CA1A3" opacity="0.25"/>
  <circle cx="9" cy="20" r="0.9" fill="#7BBFC0" opacity="0.4"/>
  <circle cx="27" cy="24" r="1.5" fill="#4CA1A3" opacity="0.25"/>
  <circle cx="27" cy="24" r="0.8" fill="#7BBFC0" opacity="0.4"/>
  <!-- Tiny bubbles -->
  <circle cx="5" cy="14" r="1" fill="#7BBFC0" opacity="0.35"/>
  <circle cx="16" cy="6" r="1" fill="#7BBFC0" opacity="0.3"/>
</svg>
