<svg xmlns="http://www.w3.org/2000/svg" width="32" height="40" viewBox="0 0 32 40" fill="none">
  <path d="M16 38V16" stroke="#95B46A" stroke-width="2" stroke-linecap="round"/>
  <path d="M16 16V10" stroke="#95B46A" stroke-width="1.5" stroke-linecap="round"/>
  <!-- Clover leaves -->
  <circle cx="12" cy="11" r="5" fill="#95B46A" opacity="0.8"/>
  <circle cx="20" cy="11" r="5" fill="#95B46A" opacity="0.8"/>
  <circle cx="16" cy="6" r="5" fill="#95B46A" opacity="0.85"/>
  <!-- Leaf highlights -->
  <circle cx="13" cy="10" r="2.5" fill="#B4CC91" opacity="0.45"/>
  <circle cx="21" cy="10" r="2.5" fill="#B4CC91" opacity="0.45"/>
  <circle cx="16.5" cy="5.5" r="2.5" fill="#B4CC91" opacity="0.5"/>
  <!-- Center hub -->
  <circle cx="16" cy="10" r="2" fill="#95B46A"/>
  <circle cx="16" cy="10" r="1" fill="#B4CC91" opacity="0.5"/>
  <!-- Leaf veins -->
  <path d="M16 10L12 7" stroke="#B4CC91" stroke-width="0.7" stroke-linecap="round" opacity="0.35"/>
  <path d="M16 10L20 7" stroke="#B4CC91" stroke-width="0.7" stroke-linecap="round" opacity="0.35"/>
  <path d="M16 10L16 4" stroke="#B4CC91" stroke-width="0.7" stroke-linecap="round" opacity="0.35"/>
  <!-- Side leaves -->
  <path d="M14 28Q10 26 8 28Q10 29 14 29Z" fill="#95B46A" opacity="0.45"/>
  <path d="M18 30Q22 28 24 30Q22 31 18 31Z" fill="#95B46A" opacity="0.45"/>
</svg>
