<svg xmlns="http://www.w3.org/2000/svg" width="32" height="40" viewBox="0 0 32 40" fill="none">
  <path d="M16 38V14" stroke="#70C1B3" stroke-width="2" stroke-linecap="round"/>
  <!-- Cactus body -->
  <path d="M12 34V16Q12 12 16 10Q20 12 20 16V34Q20 36 16 38Q12 36 12 34Z" fill="#70C1B3" opacity="0.75"/>
  <path d="M14 32V18Q14 14 16 12Q17 14 17 18V32Q17 35 16 36Q15 35 14 32Z" fill="#9AD6CB" opacity="0.4"/>
  <!-- Crystal crown -->
  <path d="M12 14L16 2L20 14Z" fill="#70C1B3" opacity="0.85"/>
  <path d="M14 13L16 4L16 13Z" fill="#9AD6CB" opacity="0.4"/>
  <!-- Side arms -->
  <path d="M12 22Q8 20 6 16Q8 16 10 18Q12 20 12 22Z" fill="#70C1B3" opacity="0.65"/>
  <path d="M20 22Q24 20 26 16Q24 16 22 18Q20 20 20 22Z" fill="#70C1B3" opacity="0.65"/>
  <path d="M11 21Q9 19 7.5 17Q9 17.5 11 19.5Z" fill="#9AD6CB" opacity="0.35"/>
  <path d="M21 21Q23 19 24.5 17Q23 17.5 21 19.5Z" fill="#9AD6CB" opacity="0.35"/>
  <!-- Crystal sparkles -->
  <circle cx="16" cy="7" r="1" fill="#9AD6CB" opacity="0.6"/>
  <circle cx="8" cy="18" r="1" fill="#9AD6CB" opacity="0.5"/>
  <circle cx="24" cy="18" r="1" fill="#9AD6CB" opacity="0.5"/>
</svg>
