<svg xmlns="http://www.w3.org/2000/svg" width="32" height="40" viewBox="0 0 32 40" fill="none">
  <!-- Ground plane -->
  <ellipse cx="16" cy="38" rx="3" ry="1" fill="#8E9AAF" opacity="0.2"/>
  <!-- Trunk with gentle C curve -->
  <path d="M16 38C15.5 30 15 22 15.5 10" stroke="#8E9AAF" stroke-width="2.5" stroke-linecap="round"/>
  <path d="M16.3 36C16 28 15.5 20 16 12" stroke="#B0B9C9" stroke-width="0.7" stroke-linecap="round" opacity="0.4"/>
  <!-- Bark texture -->
  <path d="M15.2 32V30" stroke="#8E9AAF" stroke-width="0.4" stroke-linecap="round" opacity="0.3"/>
  <path d="M16 26V24" stroke="#8E9AAF" stroke-width="0.35" stroke-linecap="round" opacity="0.25"/>
  <path d="M15.5 18V16.5" stroke="#8E9AAF" stroke-width="0.3" stroke-linecap="round" opacity="0.2"/>
  <!-- Crown cluster -->
  <path d="M15.5 10C14 8.5 13 7 14 5.5C15 4.5 16.5 5 16 7" stroke="#8E9AAF" stroke-width="1.2" stroke-linecap="round" fill="none"/>
  <path d="M15.5 10C17 8 18 7 17.5 5.5" stroke="#8E9AAF" stroke-width="1" stroke-linecap="round" opacity="0.6"/>
  <!-- Shadow fronds (back layer) -->
  <path d="M15 9C11 12 6 18 3 26C7 20 12 15 15 12Z" fill="#8E9AAF" opacity="0.2"/>
  <path d="M16.5 9C21 12 26 18 29 26C25 20 20 15 17 12Z" fill="#8E9AAF" opacity="0.18"/>
  <!-- Base fronds -->
  <path d="M15.5 10C11 13 6 19 4 24C8 19 13 15 15 13Z" fill="#8E9AAF" opacity="0.7"/>
  <path d="M16 10C21 13 26 19 28 24C24 19 19 15 17 13Z" fill="#8E9AAF" opacity="0.65"/>
  <path d="M15.5 12C9 17 5 24 4.5 30C8 24 13 18 15 15Z" fill="#8E9AAF" opacity="0.55"/>
  <path d="M16 12C23 17 27 24 27.5 30C24 24 19 18 17 15Z" fill="#8E9AAF" opacity="0.5"/>
  <path d="M15.5 14C11 19 8 27 7 34C10 28 13 21 15 17Z" fill="#8E9AAF" opacity="0.38"/>
  <path d="M16 14C21 19 24 27 25 34C22 28 19 21 17 17Z" fill="#8E9AAF" opacity="0.35"/>
  <!-- Mid highlight fronds -->
  <path d="M15.5 11C12 13.5 7 18 5 22C9 17 13.5 14 15 12.5Z" fill="#B0B9C9" opacity="0.35"/>
  <path d="M16.5 11C20 13.5 25 18 27 22C23 17 18.5 14 17 12.5Z" fill="#B0B9C9" opacity="0.3"/>
  <!-- Top accent highlights -->
  <path d="M15.5 12C11 16 7 22 6 27C9 22 13 17 15 14.5Z" fill="#B0B9C9" opacity="0.5"/>
  <path d="M16.5 13C20 17 24 23 25 28C22 23 18.5 18 17 15.5Z" fill="#B0B9C9" opacity="0.45"/>
  <!-- Frond veins -->
  <path d="M14 12C11 15 8 20 6 24" stroke="#B0B9C9" stroke-width="0.3" stroke-linecap="round" opacity="0.25"/>
  <path d="M18 12C21 15 24 20 26 24" stroke="#B0B9C9" stroke-width="0.3" stroke-linecap="round" opacity="0.2"/>
  <!-- Drip dots (varied sizes) -->
  <circle cx="4" cy="26" r="0.7" fill="#B0B9C9" opacity="0.5"/>
  <circle cx="28" cy="25" r="0.9" fill="#B0B9C9" opacity="0.4"/>
  <circle cx="7" cy="32" r="1.1" fill="#B0B9C9" opacity="0.35"/>
</svg>
