<svg xmlns="http://www.w3.org/2000/svg" width="32" height="40" viewBox="0 0 32 40" fill="none">
  <!-- Trunk -->
  <path d="M16 38V10" stroke="#8E9AAF" stroke-width="2.5" stroke-linecap="round"/>
  <path d="M16.5 36V12" stroke="#B0B9C9" stroke-width="0.8" stroke-linecap="round" opacity="0.4"/>
  <!-- Crown -->
  <path d="M16 10Q14 8 16 6" stroke="#8E9AAF" stroke-width="1.5" stroke-linecap="round"/>
  <!-- Weeping fronds -->
  <path d="M16 10Q10 12 4 22Q8 18 14 14Z" fill="#8E9AAF" opacity="0.7"/>
  <path d="M16 10Q22 12 28 22Q24 18 18 14Z" fill="#8E9AAF" opacity="0.7"/>
  <path d="M16 12Q8 16 5 28Q9 22 15 16Z" fill="#8E9AAF" opacity="0.55"/>
  <path d="M16 12Q24 16 27 28Q23 22 17 16Z" fill="#8E9AAF" opacity="0.55"/>
  <path d="M16 14Q11 18 8 32Q11 26 15 18Z" fill="#8E9AAF" opacity="0.4"/>
  <path d="M16 14Q21 18 24 32Q21 26 17 18Z" fill="#8E9AAF" opacity="0.4"/>
  <!-- Highlights -->
  <path d="M15 11Q11 13 6 20Q10 16 14.5 13Z" fill="#B0B9C9" opacity="0.35"/>
  <path d="M17 11Q21 13 26 20Q22 16 17.5 13Z" fill="#B0B9C9" opacity="0.35"/>
  <!-- Drip dots -->
  <circle cx="5" cy="24" r="1" fill="#B0B9C9" opacity="0.45"/>
  <circle cx="27" cy="24" r="1" fill="#B0B9C9" opacity="0.45"/>
  <circle cx="8" cy="30" r="1" fill="#B0B9C9" opacity="0.35"/>
</svg>
