<svg xmlns="http://www.w3.org/2000/svg" width="32" height="40" viewBox="0 0 32 40" fill="none">
  <path d="M16 38V8" stroke="#C45B28" stroke-width="2" stroke-linecap="round"/>
  <!-- Ember flame tip -->
  <path d="M16 8C14 5 14 3 16 1C18 3 18 5 16 8Z" fill="#C45B28"/>
  <path d="M16 7C15 5 15 3.5 16 2C17 3.5 17 5 16 7Z" fill="#D98A60" opacity="0.5"/>
  <!-- Glow halo -->
  <circle cx="16" cy="4" r="3.5" fill="#C45B28" opacity="0.15"/>
  <!-- Thorn pairs (filled) -->
  <path d="M16 14Q12 10 10 10Q12 12 16 14Z" fill="#C45B28" opacity="0.7"/>
  <path d="M16 20Q20 16 22 16Q20 18 16 20Z" fill="#C45B28" opacity="0.7"/>
  <path d="M16 26Q12 22 10 22Q12 24 16 26Z" fill="#C45B28" opacity="0.65"/>
  <path d="M16 32Q20 28 22 28Q20 30 16 32Z" fill="#C45B28" opacity="0.65"/>
  <!-- Thorn highlights -->
  <path d="M15.5 13.5Q13 11.5 11.5 11.5Q13 12.5 15.5 14Z" fill="#D98A60" opacity="0.35"/>
  <path d="M16.5 19.5Q19 17.5 20.5 17.5Q19 18.5 16.5 20Z" fill="#D98A60" opacity="0.35"/>
  <!-- Tip embers -->
  <circle cx="10" cy="10" r="1.2" fill="#D98A60" opacity="0.6"/>
  <circle cx="22" cy="16" r="1.2" fill="#D98A60" opacity="0.6"/>
  <circle cx="10" cy="22" r="1" fill="#D98A60" opacity="0.5"/>
  <circle cx="22" cy="28" r="1" fill="#D98A60" opacity="0.5"/>
  <!-- Base ember glow -->
  <circle cx="16" cy="36" r="2" fill="#C45B28" opacity="0.1"/>
</svg>
