<svg xmlns="http://www.w3.org/2000/svg" width="32" height="40" viewBox="0 0 32 40" fill="none">
  <!-- Ground plane -->
  <ellipse cx="16" cy="38" rx="3" ry="1" fill="#7BBCD4" opacity="0.2"/>
  <!-- Stem with gentle curve -->
  <path d="M16 38C15.5 32 15.8 24 16 16" stroke="#7BBCD4" stroke-width="1.8" stroke-linecap="round"/>
  <path d="M16.3 36C16 30 16.1 23 16.2 17" stroke="#C8E6F2" stroke-width="0.6" stroke-linecap="round" opacity="0.35"/>
  <!-- Frost aura (outer glow) -->
  <path d="M16 16C16 16 8 11 6 6C5 3 9 2 12 5C12 1 15 0 16 2.5C17 0 20 1 20 5C23 2 27 3 26 6C24 11 16 16 16 16Z" fill="#C8E6F2" opacity="0.15"/>
  <!-- Shadow petals (back layer) -->
  <path d="M16 16C16 16 9 11.5 7 7.5C6 5 9 4 11.5 6C11.5 3 14 2 16 4.5C18 2 20.5 3 20.5 6C23 4 26 5 25 7.5C23 11.5 16 16 16 16Z" fill="#7BBCD4" opacity="0.22"/>
  <!-- Base petals (main bloom) -->
  <path d="M16 15C16 15 10 11 8.5 7.5C7.5 5 10 4.5 12 6.5C12 3.5 14.5 2.5 16 4.5C17.5 2.5 20 3.5 20 6.5C22 4.5 24.5 5 23.5 7.5C22 11 16 15 16 15Z" fill="#7BBCD4" opacity="0.8"/>
  <!-- Inner petal layer -->
  <path d="M16 13.5C16 13.5 12.5 11 11.5 8C11 6.5 12.5 6 13.5 7.5C14 5.5 15 4.5 16 6C17 4.5 18 5.5 18.5 7.5C19.5 6 21 6.5 20.5 8C19.5 11 16 13.5 16 13.5Z" fill="#C8E6F2" opacity="0.45"/>
  <!-- Top highlight accents -->
  <path d="M16 12C16 12 14 10 13 8C12.5 7 13.5 6.5 14.5 7.5C15 6.5 16 6 16 7C16 6 17 6.5 17.5 7.5C18.5 6.5 19.5 7 19 8C18 10 16 12 16 12Z" fill="#C8E6F2" opacity="0.55"/>
  <!-- Labellum (orchid lip) -->
  <path d="M16 14C15 13 14 12 14.5 11.5C15 11 15.5 11.5 16 12C16.5 11.5 17 11 17.5 11.5C18 12 17 13 16 14Z" fill="#C8E6F2" opacity="0.6"/>
  <!-- Center -->
  <circle cx="16" cy="10" r="2" fill="#C8E6F2"/>
  <circle cx="16" cy="10" r="0.9" fill="#7BBCD4"/>
  <circle cx="15.5" cy="9.5" r="0.35" fill="#7BBCD4" opacity="0.5"/>
  <!-- Ice crystal textures on petals -->
  <path d="M10 9L9.5 8L10.5 8Z" fill="#C8E6F2" opacity="0.3"/>
  <path d="M22 9L21.5 8L22.5 8Z" fill="#C8E6F2" opacity="0.25"/>
  <!-- Left bud (angled slightly down) -->
  <path d="M15 24C13 23 10 22.5 10 22" stroke="#7BBCD4" stroke-width="1.3" stroke-linecap="round"/>
  <path d="M10 22C8.5 20 9 18.5 10.5 18.5C12 19.5 10.5 21.5 10 22Z" fill="#7BBCD4" opacity="0.6"/>
  <circle cx="10.2" cy="20" r="0.8" fill="#C8E6F2" opacity="0.4"/>
  <!-- Right bud (angled slightly up) -->
  <path d="M17.5 29C19.5 28 22 27 22 27.5" stroke="#7BBCD4" stroke-width="1.3" stroke-linecap="round"/>
  <path d="M22 27.5C24 25.5 23 24 21.5 24.5C20.5 25.5 21.5 27 22 27.5Z" fill="#7BBCD4" opacity="0.55"/>
  <circle cx="21.8" cy="25.5" r="0.7" fill="#C8E6F2" opacity="0.35"/>
  <!-- 4-point frost stars -->
  <path d="M9 7L9 5.5M8.2 6.3L9.8 6.3" stroke="#C8E6F2" stroke-width="0.5" stroke-linecap="round" opacity="0.5"/>
  <path d="M23 7L23 5.5M22.2 6.3L23.8 6.3" stroke="#C8E6F2" stroke-width="0.5" stroke-linecap="round" opacity="0.45"/>
  <path d="M6 12L6 11M5.5 11.5L6.5 11.5" stroke="#C8E6F2" stroke-width="0.4" stroke-linecap="round" opacity="0.35"/>
  <path d="M26 11L26 10M25.5 10.5L26.5 10.5" stroke="#C8E6F2" stroke-width="0.4" stroke-linecap="round" opacity="0.3"/>
</svg>
