<svg xmlns="http://www.w3.org/2000/svg" width="32" height="40" viewBox="0 0 32 40" fill="none">
  <path d="M16 38V16" stroke="#B8D4E3" stroke-width="2" stroke-linecap="round"/>
  <!-- Multi-petal orchid -->
  <path d="M16 16C16 16 10 12 8 8C7 5 10 4 12 6C12 3 14 2 16 4C18 2 20 3 20 6C22 4 25 5 24 8C22 12 16 16 16 16Z" fill="#B8D4E3" opacity="0.8"/>
  <!-- Inner petal -->
  <path d="M16 14C16 14 12 11 11 8C10.5 6 12 5.5 13 7C13.5 5 15 4 16 5.5C17 4 18.5 5 19 7C20 5.5 21.5 6 21 8C20 11 16 14 16 14Z" fill="#D6E8F0" opacity="0.45"/>
  <!-- Center -->
  <circle cx="16" cy="10" r="2.5" fill="#D6E8F0"/>
  <circle cx="16" cy="10" r="1" fill="#B8D4E3"/>
  <!-- Left bud -->
  <path d="M14 24L10 22" stroke="#B8D4E3" stroke-width="1.5" stroke-linecap="round"/>
  <path d="M10 22Q8 20 10 18Q12 20 10 22Z" fill="#B8D4E3" opacity="0.6"/>
  <circle cx="10" cy="20" r="1" fill="#D6E8F0" opacity="0.4"/>
  <!-- Right bud -->
  <path d="M18 30L22 28" stroke="#B8D4E3" stroke-width="1.5" stroke-linecap="round"/>
  <path d="M22 28Q24 26 22 24Q20 26 22 28Z" fill="#B8D4E3" opacity="0.6"/>
  <circle cx="22" cy="26" r="1" fill="#D6E8F0" opacity="0.4"/>
  <!-- Frost sparkles -->
  <circle cx="10" cy="8" r="1" fill="#D6E8F0" opacity="0.5"/>
  <circle cx="22" cy="8" r="1" fill="#D6E8F0" opacity="0.5"/>
</svg>
