<svg xmlns="http://www.w3.org/2000/svg" width="32" height="40" viewBox="0 0 32 40" fill="none">
  <path d="M16 38V16" stroke="#B8D4E3" stroke-width="2" stroke-linecap="round"/>
  <path d="M16 16C16 16 10 12 8 8C7 5 10 4 12 6C12 3 14 2 16 4C18 2 20 3 20 6C22 4 25 5 24 8C22 12 16 16 16 16Z" fill="#B8D4E3" opacity="0.8"/>
  <circle cx="16" cy="10" r="2.5" fill="#D6E8F0"/>
  <circle cx="16" cy="10" r="1" fill="#B8D4E3"/>
  <path d="M16 24L12 22" stroke="#B8D4E3" stroke-width="1.5" stroke-linecap="round"/>
  <path d="M12 22C10 22 8 20 8 18" stroke="#B8D4E3" stroke-width="1" stroke-linecap="round" opacity="0.5"/>
  <path d="M16 30L20 28" stroke="#B8D4E3" stroke-width="1.5" stroke-linecap="round"/>
  <path d="M20 28C22 28 24 26 24 24" stroke="#B8D4E3" stroke-width="1" stroke-linecap="round" opacity="0.5"/>
</svg>
