<svg xmlns="http://www.w3.org/2000/svg" width="32" height="40" viewBox="0 0 32 40" fill="none">
  <!-- Upper trunk -->
  <path d="M16 20V4" stroke="#8B6C5C" stroke-width="2.5" stroke-linecap="round"/>
  <path d="M16.5 18V6" stroke="#AD9182" stroke-width="0.8" stroke-linecap="round" opacity="0.4"/>
  <!-- Crown sprouts -->
  <path d="M16 4Q14 2 12 2Q14 3 16 4Z" fill="#8B6C5C" opacity="0.7"/>
  <path d="M16 4Q18 2 20 2Q18 3 16 4Z" fill="#8B6C5C" opacity="0.7"/>
  <!-- Main roots -->
  <path d="M16 20Q12 24 8 30Q6 34 4 38L6 38Q8 34 10 30Q14 24 16 22Z" fill="#8B6C5C" opacity="0.8"/>
  <path d="M16 20Q20 24 24 30Q26 34 28 38L26 38Q24 34 22 30Q18 24 16 22Z" fill="#8B6C5C" opacity="0.8"/>
  <path d="M16 20Q16 26 16 32V38L17 38V32Q17 26 16 22Z" fill="#8B6C5C" opacity="0.7"/>
  <!-- Secondary roots -->
  <path d="M16 24Q13 26 10 30Q8 34 6 36L7.5 36Q9 34 11 30Q14 26 16 24Z" fill="#8B6C5C" opacity="0.5"/>
  <path d="M16 24Q19 26 22 30Q24 34 26 36L24.5 36Q23 34 21 30Q18 26 16 24Z" fill="#8B6C5C" opacity="0.5"/>
  <!-- Root highlights -->
  <path d="M15 21Q11 25 8 31Q10 28 14 24Z" fill="#AD9182" opacity="0.35"/>
  <path d="M17 21Q21 25 24 31Q22 28 18 24Z" fill="#AD9182" opacity="0.35"/>
  <!-- Ground nodules -->
  <circle cx="6" cy="36" r="1.5" fill="#8B6C5C" opacity="0.5"/>
  <circle cx="26" cy="36" r="1.5" fill="#8B6C5C" opacity="0.5"/>
  <circle cx="16" cy="36" r="1.2" fill="#AD9182" opacity="0.4"/>
</svg>
