<svg xmlns="http://www.w3.org/2000/svg" width="32" height="40" viewBox="0 0 32 40" fill="none">
  <!-- Ground plane -->
  <ellipse cx="16" cy="38" rx="5" ry="1.2" fill="#8B6C5C" opacity="0.2"/>
  <!-- Upper trunk with gentle curve -->
  <path d="M16 20C16 16 15.8 10 16 4" stroke="#8B6C5C" stroke-width="2.8" stroke-linecap="round"/>
  <path d="M16.5 18C16.3 14 16.2 9 16.3 5.5" stroke="#AD9182" stroke-width="0.7" stroke-linecap="round" opacity="0.4"/>
  <!-- Bark texture on trunk -->
  <path d="M15 16H16.5" stroke="#8B6C5C" stroke-width="0.35" stroke-linecap="round" opacity="0.3"/>
  <path d="M15.3 12H17" stroke="#8B6C5C" stroke-width="0.3" stroke-linecap="round" opacity="0.25"/>
  <path d="M15.5 8H16.8" stroke="#8B6C5C" stroke-width="0.3" stroke-linecap="round" opacity="0.2"/>
  <!-- Crown sprouts -->
  <path d="M16 4C14.5 2.5 13 1.5 12 2C12.5 3 14.5 3.5 16 4Z" fill="#8B6C5C" opacity="0.7"/>
  <path d="M16 4C17.5 2 19 1.5 20 2C19.5 3 17.5 3.5 16 4Z" fill="#8B6C5C" opacity="0.65"/>
  <!-- Sprout veins -->
  <path d="M16 4L13 2.5" stroke="#AD9182" stroke-width="0.3" stroke-linecap="round" opacity="0.2"/>
  <path d="M16 4L19 2" stroke="#AD9182" stroke-width="0.3" stroke-linecap="round" opacity="0.18"/>
  <!-- Shadow roots (back layer) -->
  <path d="M16 20C12 24 7 30 5 34C3.5 37 3 38 2.5 39L4.5 39C5.5 37 7 34 9 30C13 24 16 22 16 22Z" fill="#8B6C5C" opacity="0.18"/>
  <path d="M16 20C20 24 25 30 27 34C28.5 37 29 38 29.5 39L27.5 39C26.5 37 25 34 23 30C19 24 16 22 16 22Z" fill="#8B6C5C" opacity="0.15"/>
  <!-- Main roots (base shapes) -->
  <path d="M16 20C12 24 8 30 6 34C4.5 37 4 38 3.5 38.5L5.5 38.5C6.5 37 8.5 33 10.5 29C13.5 24 16 22 16 22Z" fill="#8B6C5C" opacity="0.8"/>
  <path d="M16 20C20 24 24 30 26 34C27.5 37 28 38 28.5 38.5L26.5 38.5C25.5 37 23.5 33 21.5 29C18.5 24 16 22 16 22Z" fill="#8B6C5C" opacity="0.75"/>
  <path d="M16 20C16 26 16 32 16 38L17.2 38C17 32 16.8 26 16 22Z" fill="#8B6C5C" opacity="0.7"/>
  <!-- Secondary roots -->
  <path d="M16 24C13 27 10 31 8 35C7 37 6.5 38 6 38.5L7.8 38.5C8.5 37 9.5 34 11 31C13.5 27 16 24 16 24Z" fill="#8B6C5C" opacity="0.5"/>
  <path d="M16 24C19 27 22 31 24 35C25 37 25.5 38 26 38.5L24.2 38.5C23.5 37 22.5 34 21 31C18.5 27 16 24 16 24Z" fill="#8B6C5C" opacity="0.45"/>
  <!-- Root highlights -->
  <path d="M15 21C11 25 8 31 6 35C8 31 12 26 15 23Z" fill="#AD9182" opacity="0.35"/>
  <path d="M17 21C21 25 24 31 26 35C24 31 20 26 17 23Z" fill="#AD9182" opacity="0.3"/>
  <!-- Root texture (wood grain lines) -->
  <path d="M12 26C11 27 10 28.5 9.5 30" stroke="#AD9182" stroke-width="0.3" stroke-linecap="round" opacity="0.2"/>
  <path d="M20 26C21 27 22 28.5 22.5 30" stroke="#AD9182" stroke-width="0.3" stroke-linecap="round" opacity="0.18"/>
  <!-- Root nodules (organic shapes) -->
  <ellipse cx="5.5" cy="36" rx="1.8" ry="1.2" fill="#8B6C5C" opacity="0.5" transform="rotate(-10 5.5 36)"/>
  <ellipse cx="26.5" cy="36" rx="1.6" ry="1" fill="#8B6C5C" opacity="0.45" transform="rotate(12 26.5 36)"/>
  <ellipse cx="16.3" cy="37" rx="1.3" ry="0.9" fill="#AD9182" opacity="0.4"/>
  <!-- Nodule highlight -->
  <ellipse cx="5.8" cy="35.5" rx="0.8" ry="0.5" fill="#AD9182" opacity="0.3" transform="rotate(-10 5.8 35.5)"/>
</svg>
