<svg xmlns="http://www.w3.org/2000/svg" width="32" height="40" viewBox="0 0 32 40" fill="none">
 <ellipse cx="16" cy="38" rx="3" ry="1" fill="#C4A882" opacity="0.2"/>
 <path d="M16 38C16 34 15 28 16 24C16 22 16 20 16 18" stroke="#C4A882" stroke-width="1.8" stroke-linecap="round" opacity="0.8"/>
 <path d="M16 36C16 32 16 26 16 22" stroke="#DCC5A6" stroke-width="0.5" stroke-linecap="round" opacity="0.3"/>
 <circle cx="16" cy="13" r="11" fill="#DCC5A6" opacity="0.07"/>
 <ellipse cx="16" cy="7" rx="2.8" ry="7.5" fill="#C4A882" opacity="0.18"/>
 <ellipse cx="8" cy="11" rx="2.5" ry="6.5" fill="#C4A882" opacity="0.15" transform="rotate(35 8 11)"/>
 <ellipse cx="24" cy="11" rx="2.5" ry="6.5" fill="#C4A882" opacity="0.15" transform="rotate(-35 24 11)"/>
 <ellipse cx="16" cy="8" rx="2.5" ry="7" fill="#C4A882" opacity="0.75"/>
 <ellipse cx="10" cy="11" rx="2.2" ry="6" fill="#C4A882" opacity="0.7" transform="rotate(32 10 11)"/>
 <ellipse cx="23" cy="11" rx="2.3" ry="6" fill="#C4A882" opacity="0.68" transform="rotate(-28 23 11)"/>
 <ellipse cx="7" cy="16" rx="2" ry="5" fill="#C4A882" opacity="0.62" transform="rotate(62 7 16)"/>
 <ellipse cx="25" cy="17" rx="2" ry="5" fill="#C4A882" opacity="0.6" transform="rotate(-58 25 17)"/>
 <ellipse cx="16" cy="7" rx="1.2" ry="4" fill="#DCC5A6" opacity="0.45"/>
 <ellipse cx="10" cy="11" rx="1" ry="3" fill="#DCC5A6" opacity="0.4" transform="rotate(32 10 11)"/>
 <path d="M16 4C16 8 16 14 16 16" stroke="#DCC5A6" stroke-width="0.4" stroke-linecap="round" opacity="0.22"/>
 <circle cx="16" cy="17" r="3.2" fill="#C4A882" opacity="0.9"/>
 <circle cx="16" cy="17" r="2" fill="#DCC5A6" opacity="0.5"/>
 <circle cx="15" cy="16" r="0.5" fill="#DCC5A6" opacity="0.6"/>
 <circle cx="17" cy="17" r="0.4" fill="#DCC5A6" opacity="0.55"/>
 <circle cx="16" cy="18" r="0.4" fill="#DCC5A6" opacity="0.5"/>
 <path d="M14 28C11 27 9 26 8 28C9 29 12 30 14 30Z" fill="#C4A882" opacity="0.5"/>
 <path d="M18 30C21 29 23 29 24 30C23 31 20 32 18 32Z" fill="#C4A882" opacity="0.45"/>
</svg>