<svg xmlns="http://www.w3.org/2000/svg" width="32" height="40" viewBox="0 0 32 40" fill="none">
  <path d="M16 38V18" stroke="#C4A882" stroke-width="2" stroke-linecap="round"/>
  <!-- Petals radiating from center -->
  <ellipse cx="16" cy="8" rx="2.5" ry="7" fill="#C4A882" opacity="0.8"/>
  <ellipse cx="9" cy="11" rx="2.2" ry="6" fill="#C4A882" opacity="0.7" transform="rotate(30 9 11)"/>
  <ellipse cx="23" cy="11" rx="2.2" ry="6" fill="#C4A882" opacity="0.7" transform="rotate(-30 23 11)"/>
  <ellipse cx="7" cy="16" rx="2" ry="5" fill="#C4A882" opacity="0.65" transform="rotate(60 7 16)"/>
  <ellipse cx="25" cy="16" rx="2" ry="5" fill="#C4A882" opacity="0.65" transform="rotate(-60 25 16)"/>
  <!-- Petal highlights -->
  <ellipse cx="16" cy="7" rx="1.2" ry="4" fill="#DCC5A6" opacity="0.45"/>
  <ellipse cx="10" cy="10.5" rx="1" ry="3.5" fill="#DCC5A6" opacity="0.4" transform="rotate(30 10 10.5)"/>
  <ellipse cx="22" cy="10.5" rx="1" ry="3.5" fill="#DCC5A6" opacity="0.4" transform="rotate(-30 22 10.5)"/>
  <!-- Center -->
  <circle cx="16" cy="17" r="3" fill="#C4A882"/>
  <circle cx="16" cy="17" r="1.5" fill="#DCC5A6" opacity="0.6"/>
  <!-- Side leaf accents -->
  <path d="M14 28Q10 26 8 28Q10 29 14 30Z" fill="#C4A882" opacity="0.5"/>
  <path d="M18 30Q22 28 24 30Q22 31 18 32Z" fill="#C4A882" opacity="0.5"/>
  <!-- Pollen dots -->
  <circle cx="13" cy="6" r="1" fill="#DCC5A6" opacity="0.55"/>
  <circle cx="19" cy="6" r="1" fill="#DCC5A6" opacity="0.55"/>
</svg>
