<svg xmlns="http://www.w3.org/2000/svg" width="32" height="40" viewBox="0 0 32 40" fill="none">
  <path d="M16 38V22" stroke="#D4A0A0" stroke-width="2" stroke-linecap="round"/>
  <path d="M16 22C16 22 12 18 12 14C12 12 14 12 16 14C18 12 20 12 20 14C20 18 16 22 16 22Z" fill="#D4A0A0"/>
  <path d="M16 20C16 20 8 16 6 12C5 10 7 9 10 11C10 8 12 7 14 9C14 9 16 16 16 20Z" fill="#D4A0A0" opacity="0.7"/>
  <path d="M16 20C16 20 24 16 26 12C27 10 25 9 22 11C22 8 20 7 18 9C18 9 16 16 16 20Z" fill="#D4A0A0" opacity="0.7"/>
  <circle cx="16" cy="14" r="1.5" fill="#E8C4C4"/>
  <path d="M12 30L8 32" stroke="#D4A0A0" stroke-width="1.5" stroke-linecap="round" opacity="0.5"/>
  <path d="M20 30L24 32" stroke="#D4A0A0" stroke-width="1.5" stroke-linecap="round" opacity="0.5"/>
</svg>
