<svg xmlns="http://www.w3.org/2000/svg" width="32" height="40" viewBox="0 0 32 40" fill="none">
  <!-- Shadow frond (back layer, behind lowest pair) -->
  <path d="M14.5 29C10 26 5 25 3.5 27.5C8 29.5 12 31 14.5 31Z" fill="#6B8E23" opacity="0.15"/>
  <path d="M17.5 29C22 26 27 25 28.5 27.5C24 29.5 20 31 17.5 31Z" fill="#6B8E23" opacity="0.15"/>
  <!-- Main stem (gentle C curve) -->
  <path d="M16 38C15.5 30 16.5 18 16 6" stroke="#6B8E23" stroke-width="2" stroke-linecap="round"/>
  <!-- Stem highlight -->
  <path d="M16.3 36C15.8 28 16.8 17 16.3 8" stroke="#8FB339" stroke-width="0.6" stroke-linecap="round" opacity="0.3"/>
  <!-- Fiddlehead curl (C bezier, more detail) -->
  <path d="M16 6C14.5 4 14 2.5 15 1.5C16.5 1 17.5 2.5 17 4.5" stroke="#6B8E23" stroke-width="1.3" stroke-linecap="round" fill="none"/>
  <path d="M16.5 5C16 3.5 16 2.5 16.5 2" stroke="#8FB339" stroke-width="0.5" stroke-linecap="round" fill="none" opacity="0.4"/>
  <!-- Frond pair 1 — top (smallest, C beziers) -->
  <path d="M15 10C12 8 9 7.5 8 9.5C10 11 13 11.5 15 12Z" fill="#6B8E23" opacity="0.85"/>
  <path d="M17 10C20 7.5 23 7.8 24.5 9.8C22 11 19 11.8 17 12Z" fill="#6B8E23" opacity="0.8"/>
  <!-- Frond pair 2 — mid-top -->
  <path d="M15 16C11 13.5 7.5 13 6 14.8C9 17 12.5 17.8 15 18Z" fill="#6B8E23" opacity="0.8"/>
  <path d="M17 16C21 13 25 13.2 26.5 15C23 17 19.5 18 17 18Z" fill="#6B8E23" opacity="0.75"/>
  <!-- Frond pair 3 — middle -->
  <path d="M15 22C10.5 19.5 6.5 19 5 20.8C8.5 23 12 24 15 24Z" fill="#6B8E23" opacity="0.75"/>
  <path d="M17 22C21.5 19 26 19.2 27.5 21C24 23 20 24.2 17 24Z" fill="#6B8E23" opacity="0.7"/>
  <!-- Frond pair 4 — bottom (largest) -->
  <path d="M15 28C10 25.5 5.5 25 4 26.8C8 29 12 30 15 30Z" fill="#6B8E23" opacity="0.7"/>
  <path d="M17 28C22 25 27 25.2 28.5 27C24.5 29 20 30.2 17 30Z" fill="#6B8E23" opacity="0.65"/>
  <!-- Frond highlights (top 3 pairs) -->
  <path d="M14.5 10.5C12 9 10 9 9 10C11 10.8 13 11 14.5 11.3Z" fill="#8FB339" opacity="0.4"/>
  <path d="M17.5 10.5C20 8.5 22 9 23.5 10C21 10.8 19 11.2 17.5 11.3Z" fill="#8FB339" opacity="0.35"/>
  <path d="M14.5 16.5C11.5 14.5 9 14.5 7.5 15.5C10 16.8 12.5 17.2 14.5 17.3Z" fill="#8FB339" opacity="0.35"/>
  <path d="M17.5 16.5C20.5 14.5 23 14.5 24.5 15.5C22 16.8 19.5 17.2 17.5 17.3Z" fill="#8FB339" opacity="0.3"/>
  <!-- Leaf veins — midrib per frond -->
  <path d="M15 11C12 9.5 9.5 9 8.5 9.5" stroke="#4A6B10" stroke-width="0.5" stroke-linecap="round" opacity="0.3"/>
  <path d="M17 11C20 9 22.5 9 23.5 9.5" stroke="#4A6B10" stroke-width="0.5" stroke-linecap="round" opacity="0.25"/>
  <path d="M15 17C12 15 8.5 14.5 7 15" stroke="#4A6B10" stroke-width="0.45" stroke-linecap="round" opacity="0.25"/>
  <path d="M17 17C20 15 23.5 14.5 25.5 15" stroke="#4A6B10" stroke-width="0.45" stroke-linecap="round" opacity="0.22"/>
  <path d="M15 23C11.5 21 8 20.5 6 21" stroke="#4A6B10" stroke-width="0.4" stroke-linecap="round" opacity="0.22"/>
  <path d="M17 23C20.5 21 24.5 20.5 26.5 21" stroke="#4A6B10" stroke-width="0.4" stroke-linecap="round" opacity="0.2"/>
  <!-- Lateral veins (smaller) -->
  <!-- Ground plane -->
  <ellipse cx="16" cy="38" rx="3" ry="1" fill="#6B8E23" opacity="0.2"/>
</svg>