<svg xmlns="http://www.w3.org/2000/svg" width="32" height="40" viewBox="0 0 32 40" fill="none">
  <!-- Ground plane -->
  <ellipse cx="16" cy="38" rx="6" ry="1.3" fill="#4A7C59" opacity="0.2"/>
  <!-- Shadow/back moss cluster -->
  <path d="M3 34C3 26 7 22 10 20C13 18 16 16 19 18C22 20 27 23 29 28C29 32 28 35 28 36Z" fill="#4A7C59" opacity="0.18"/>
  <!-- Base mound (irregular organic shape) -->
  <path d="M4 36C3 32 4 26 8 22C11 19 14 17 16 15C18 17 21 19 24 22C28 26 29 32 28 36Z" fill="#4A7C59" opacity="0.75"/>
  <!-- Mid highlight dome -->
  <path d="M7 34C7 28 10 24 13 22C15 20 17 20 19 22C22 24 25 28 25 34Z" fill="#72A080" opacity="0.35"/>
  <!-- Top highlight -->
  <path d="M11 32C11 27 13 24 16 22C19 24 21 27 21 32Z" fill="#72A080" opacity="0.5"/>
  <!-- Back bump textures (varied sizes) -->
  <circle cx="8" cy="26" r="3.2" fill="#4A7C59" opacity="0.85"/>
  <circle cx="24" cy="26" r="2.8" fill="#4A7C59" opacity="0.85"/>
  <!-- Mid bump textures -->
  <circle cx="12" cy="23" r="2.7" fill="#4A7C59" opacity="0.9"/>
  <circle cx="20" cy="23" r="3" fill="#4A7C59" opacity="0.88"/>
  <circle cx="16" cy="20" r="3.2" fill="#4A7C59" opacity="0.95"/>
  <!-- Front bump textures (smaller, foreground) -->
  <circle cx="10" cy="29" r="2.2" fill="#4A7C59" opacity="0.8"/>
  <circle cx="16" cy="28" r="2" fill="#4A7C59" opacity="0.82"/>
  <circle cx="22" cy="29" r="2.3" fill="#4A7C59" opacity="0.78"/>
  <!-- Surface micro-bumps (tiny irregular dots) -->
  <circle cx="9" cy="24" r="0.9" fill="#72A080" opacity="0.5"/>
  <circle cx="14" cy="21" r="1.1" fill="#72A080" opacity="0.45"/>
  <circle cx="18" cy="21" r="1" fill="#72A080" opacity="0.48"/>
  <circle cx="23" cy="24" r="0.8" fill="#72A080" opacity="0.45"/>
  <circle cx="16" cy="18" r="1.2" fill="#72A080" opacity="0.5"/>
  <!-- Moss vein textures (irregular thin lines) -->
  <path d="M12 28C13 25 14 23 16 20" stroke="#3A6248" stroke-width="0.4" stroke-linecap="round" opacity="0.2"/>
  <path d="M20 28C19 25 18 23 16 21" stroke="#3A6248" stroke-width="0.4" stroke-linecap="round" opacity="0.18"/>
  <path d="M8 30C9 27 11 24 13 22" stroke="#3A6248" stroke-width="0.3" stroke-linecap="round" opacity="0.15"/>
  <!-- Pulse glow -->
  <circle cx="16" cy="22" r="5" fill="#72A080" opacity="0.12"/>
  <!-- Spore dots -->
  <circle cx="7" cy="20" r="0.8" fill="#72A080" opacity="0.55"/>
  <circle cx="25" cy="20" r="0.7" fill="#72A080" opacity="0.5"/>
  <circle cx="16" cy="14" r="0.9" fill="#72A080" opacity="0.5"/>
</svg>
