<svg xmlns="http://www.w3.org/2000/svg" width="32" height="40" viewBox="0 0 32 40" fill="none">
  <!-- Short stem -->
  <path d="M16 38V28" stroke="#4A7C59" stroke-width="2" stroke-linecap="round"/>
  <!-- Base mound -->
  <ellipse cx="16" cy="32" rx="12" ry="6" fill="#4A7C59" opacity="0.5"/>
  <!-- Main moss body -->
  <path d="M4 30Q4 20 10 18Q14 16 16 14Q18 16 22 18Q28 20 28 30Z" fill="#4A7C59" opacity="0.8"/>
  <!-- Highlight dome -->
  <path d="M8 28Q8 22 13 20Q16 17 19 20Q24 22 24 28Z" fill="#72A080" opacity="0.4"/>
  <!-- Bump textures -->
  <circle cx="10" cy="22" r="3" fill="#4A7C59" opacity="0.9"/>
  <circle cx="16" cy="18" r="3.5" fill="#4A7C59"/>
  <circle cx="22" cy="22" r="3" fill="#4A7C59" opacity="0.9"/>
  <circle cx="13" cy="26" r="2.5" fill="#4A7C59" opacity="0.85"/>
  <circle cx="19" cy="26" r="2.5" fill="#4A7C59" opacity="0.85"/>
  <!-- Highlight bumps -->
  <circle cx="11" cy="21" r="1.5" fill="#72A080" opacity="0.5"/>
  <circle cx="16.5" cy="17" r="1.8" fill="#72A080" opacity="0.5"/>
  <circle cx="21" cy="21" r="1.5" fill="#72A080" opacity="0.5"/>
  <!-- Pulse glow -->
  <circle cx="16" cy="20" r="5" fill="#72A080" opacity="0.15"/>
  <!-- Spore dots -->
  <circle cx="8" cy="25" r="1" fill="#72A080" opacity="0.6"/>
  <circle cx="24" cy="25" r="1" fill="#72A080" opacity="0.6"/>
  <circle cx="16" cy="14" r="1" fill="#72A080" opacity="0.5"/>
</svg>
