<svg xmlns="http://www.w3.org/2000/svg" width="32" height="40" viewBox="0 0 32 40" fill="none">
  <!-- Vine stem (gently curved) -->
  <path d="M16 38C15 32 17 26 15 20C13 14 16 8 16 4" stroke="#7A9E7E" stroke-width="1.8" stroke-linecap="round"/>
  <!-- Ivy leaves — left bottom -->
  <path d="M14 30C12 28 7 27 6 29C6 32 10 34 14 32Z" fill="#7A9E7E" opacity="0.8"/>
  <path d="M13.5 30C12 29 9 28.5 8 30C8.5 31.5 11 32.5 13.5 31Z" fill="#A0BDA4" opacity="0.4"/>
  <!-- Right -->
  <path d="M17 24C19 22 24 21 25 23C25 26 21 28 17 26Z" fill="#7A9E7E" opacity="0.85"/>
  <path d="M17.5 24C19 23 22 22.5 23.5 24C23 25.5 20.5 26.5 17.5 25Z" fill="#A0BDA4" opacity="0.4"/>
  <!-- Left upper -->
  <path d="M14 18C12 16 7 15 6 17C6 20 10 22 14 20Z" fill="#7A9E7E" opacity="0.85"/>
  <path d="M13.5 18C12 17 9 16.5 8 18C8.5 19.5 11 20.5 13.5 19Z" fill="#A0BDA4" opacity="0.4"/>
  <!-- Right top -->
  <path d="M18 12C20 10 24 9 25 11C25 14 21 16 18 14Z" fill="#7A9E7E" opacity="0.9"/>
  <path d="M18.5 12C20 11 22.5 10.5 23.5 12C23 13.5 20.5 14.5 18.5 13Z" fill="#A0BDA4" opacity="0.4"/>
  <!-- Top bud -->
  <path d="M16 4C14 3 14 1 16 2C18 1 18 3 16 4Z" fill="#7A9E7E" opacity="0.8"/>
  <!-- Tendril curls -->
  <path d="M16 4Q14 2 15 1" stroke="#7A9E7E" stroke-width="0.8" stroke-linecap="round" fill="none" opacity="0.6"/>
  <path d="M7 31Q5 33 4 32" stroke="#7A9E7E" stroke-width="0.8" stroke-linecap="round" fill="none" opacity="0.5"/>
  <!-- Accent dots -->
  <circle cx="8" cy="20" r="1" fill="#A0BDA4" opacity="0.5"/>
  <circle cx="24" cy="14" r="1" fill="#A0BDA4" opacity="0.5"/>
</svg>
