<svg xmlns="http://www.w3.org/2000/svg" width="32" height="40" viewBox="0 0 32 40" fill="none">
 <ellipse cx="16" cy="38" rx="3" ry="1" fill="#7A9E7E" opacity="0.2"/>
 <path d="M16 38C15 33 17 28 15 22C13 16 15 10 16 4" stroke="#7A9E7E" stroke-width="1.8" stroke-linecap="round"/>
 <path d="M16 36C16 31 17 27 16 22" stroke="#A0BDA4" stroke-width="0.5" stroke-linecap="round" opacity="0.3"/>
 <circle cx="15" cy="30" r="0.8" fill="#7A9E7E" opacity="0.5"/>
 <circle cx="16" cy="24" r="0.7" fill="#7A9E7E" opacity="0.45"/>
 <path d="M13 31C11 29 6 28 5 30C6 33 9 35 13 33Z" fill="#7A9E7E" opacity="0.18"/>
 <path d="M14 30C12 28 7 27 6 29C6 32 10 34 14 32Z" fill="#7A9E7E" opacity="0.8"/>
 <path d="M13 30C12 29 9 29 8 30C9 32 11 33 13 31Z" fill="#A0BDA4" opacity="0.4"/>
 <path d="M13 31C10 30 8 30 7 30" stroke="#A0BDA4" stroke-width="0.4" stroke-linecap="round" opacity="0.25"/>
 <path d="M11 30C10 29 9 28" stroke="#A0BDA4" stroke-width="0.3" stroke-linecap="round" opacity="0.18"/>
 <path d="M17 24C19 22 24 21 25 23C25 26 21 28 17 26Z" fill="#7A9E7E" opacity="0.85"/>
 <path d="M18 24C19 23 22 23 23 24C23 26 20 27 18 25Z" fill="#A0BDA4" opacity="0.4"/>
 <path d="M18 25C21 24 23 24 24 24" stroke="#A0BDA4" stroke-width="0.4" stroke-linecap="round" opacity="0.25"/>
 <path d="M14 18C12 16 7 15 6 17C6 20 10 22 14 20Z" fill="#7A9E7E" opacity="0.85"/>
 <path d="M13 18C12 17 9 17 8 18C9 20 11 21 13 19Z" fill="#A0BDA4" opacity="0.4"/>
 <path d="M18 12C20 10 24 10 25 11C25 14 21 16 18 14Z" fill="#7A9E7E" opacity="0.9"/>
 <path d="M19 12C20 11 23 11 23 12C23 14 21 15 19 13Z" fill="#A0BDA4" opacity="0.45"/>
 <path d="M16 4C15 3 14 2 16 3C18 2 17 3 16 4Z" fill="#7A9E7E" opacity="0.85"/>
 <path d="M16 4C14 3 15 1 16 0" stroke="#7A9E7E" stroke-width="0.7" stroke-linecap="round" opacity="0.5"/>
 <path d="M7 31C5 33 4 33 4 32" stroke="#7A9E7E" stroke-width="0.7" stroke-linecap="round" opacity="0.45"/>
 <path d="M25 14C27 16 28 15 28 14" stroke="#7A9E7E" stroke-width="0.6" stroke-linecap="round" opacity="0.4"/>
</svg>