<svg xmlns="http://www.w3.org/2000/svg" width="32" height="40" viewBox="0 0 32 40" fill="none">
  <path d="M16 38V8" stroke="#7A9E7E" stroke-width="2" stroke-linecap="round"/>
  <path d="M16 10C14 8 10 8 8 10C8 12 10 14 12 14C14 14 16 12 16 10Z" fill="#7A9E7E"/>
  <path d="M16 16C18 14 22 14 24 16C24 18 22 20 20 20C18 20 16 18 16 16Z" fill="#7A9E7E"/>
  <path d="M16 22C14 20 10 20 8 22C8 24 10 26 12 26C14 26 16 24 16 22Z" fill="#7A9E7E"/>
  <path d="M16 28C18 26 22 26 24 28C24 30 22 32 20 32C18 32 16 30 16 28Z" fill="#7A9E7E"/>
  <path d="M16 6C15 4 14 2 16 2C18 2 17 4 16 6Z" fill="#7A9E7E" opacity="0.7"/>
</svg>
