<svg xmlns="http://www.w3.org/2000/svg" width="32" height="40" viewBox="0 0 32 40" fill="none">
  <!-- Main stem -->
  <path d="M16 38V8" stroke="#A3B18A" stroke-width="2" stroke-linecap="round"/>
  <!-- Paired leaves — bottom -->
  <ellipse cx="9" cy="28" rx="6" ry="3.5" fill="#A3B18A" opacity="0.8" transform="rotate(-25 9 28)"/>
  <ellipse cx="23" cy="28" rx="6" ry="3.5" fill="#A3B18A" opacity="0.8" transform="rotate(25 23 28)"/>
  <!-- Paired leaves — middle -->
  <ellipse cx="8" cy="20" rx="5.5" ry="3" fill="#A3B18A" opacity="0.85" transform="rotate(-20 8 20)"/>
  <ellipse cx="24" cy="20" rx="5.5" ry="3" fill="#A3B18A" opacity="0.85" transform="rotate(20 24 20)"/>
  <!-- Paired leaves — top -->
  <ellipse cx="10" cy="13" rx="5" ry="2.8" fill="#A3B18A" opacity="0.9" transform="rotate(-15 10 13)"/>
  <ellipse cx="22" cy="13" rx="5" ry="2.8" fill="#A3B18A" opacity="0.9" transform="rotate(15 22 13)"/>
  <!-- Crown leaf -->
  <ellipse cx="16" cy="7" rx="3.5" ry="2.5" fill="#A3B18A"/>
  <!-- Leaf highlights -->
  <ellipse cx="10" cy="27.5" rx="3" ry="1.5" fill="#C1CEAA" opacity="0.45" transform="rotate(-25 10 27.5)"/>
  <ellipse cx="22" cy="27.5" rx="3" ry="1.5" fill="#C1CEAA" opacity="0.45" transform="rotate(25 22 27.5)"/>
  <ellipse cx="9" cy="19.5" rx="2.8" ry="1.3" fill="#C1CEAA" opacity="0.45" transform="rotate(-20 9 19.5)"/>
  <ellipse cx="23" cy="19.5" rx="2.8" ry="1.3" fill="#C1CEAA" opacity="0.45" transform="rotate(20 23 19.5)"/>
  <ellipse cx="11" cy="12.5" rx="2.5" ry="1.2" fill="#C1CEAA" opacity="0.45" transform="rotate(-15 11 12.5)"/>
  <ellipse cx="21" cy="12.5" rx="2.5" ry="1.2" fill="#C1CEAA" opacity="0.45" transform="rotate(15 21 12.5)"/>
  <ellipse cx="16" cy="6.5" rx="2" ry="1.2" fill="#C1CEAA" opacity="0.45"/>
  <!-- Shimmer dots -->
  <circle cx="5" cy="22" r="1" fill="#C1CEAA" opacity="0.6"/>
  <circle cx="27" cy="16" r="1" fill="#C1CEAA" opacity="0.55"/>
</svg>
