<svg xmlns="http://www.w3.org/2000/svg" width="32" height="40" viewBox="0 0 32 40" fill="none">
 <ellipse cx="16" cy="38" rx="3.5" ry="1" fill="#A3B18A" opacity="0.2"/>
 <path d="M16 38C16 34 15 28 16 24C16 20 16 14 16 10" stroke="#A3B18A" stroke-width="1.8" stroke-linecap="round"/>
 <path d="M16 36C16 30 16 24 16 18" stroke="#C1CEAA" stroke-width="0.5" stroke-linecap="round" opacity="0.3"/>
 <path d="M8 30C5 28 3 27 4 29C5 31 8 32 11 31Z" fill="#A3B18A" opacity="0.18"/>
 <path d="M15 30C12 28 7 28 5 29C6 32 10 33 14 32Z" fill="#A3B18A" opacity="0.78"/>
 <path d="M17 30C20 28 25 27 27 29C26 32 22 34 18 32Z" fill="#A3B18A" opacity="0.8"/>
 <path d="M14 30C12 29 9 29 7 30C8 31 11 32 13 31Z" fill="#C1CEAA" opacity="0.4"/>
 <path d="M18 30C20 29 23 28 26 30C24 31 21 32 19 32Z" fill="#C1CEAA" opacity="0.38"/>
 <path d="M14 31C10 30 7 29 6 30" stroke="#C1CEAA" stroke-width="0.5" stroke-linecap="round" opacity="0.28"/>
 <path d="M15 23C12 21 6 20 5 22C6 25 10 26 14 24Z" fill="#A3B18A" opacity="0.83"/>
 <path d="M17 23C20 21 26 20 27 22C26 25 22 26 18 25Z" fill="#A3B18A" opacity="0.85"/>
 <path d="M14 23C11 22 8 22 6 23C7 24 10 24 13 24Z" fill="#C1CEAA" opacity="0.4"/>
 <path d="M18 23C21 21 24 21 26 23C24 24 21 25 19 24Z" fill="#C1CEAA" opacity="0.38"/>
 <path d="M15 16C13 15 8 14 7 16C8 18 12 18 15 17Z" fill="#A3B18A" opacity="0.88"/>
 <path d="M17 16C19 14 24 14 25 15C24 17 20 18 18 17Z" fill="#A3B18A" opacity="0.9"/>
 <path d="M16 10C15 9 13 7 14 6C15 4 16 3 16 3C16 3 17 4 18 6C19 7 17 9 16 10Z" fill="#A3B18A" opacity="0.92"/>
 <path d="M16 9C16 7 16 5 16 4" stroke="#C1CEAA" stroke-width="0.4" stroke-linecap="round" opacity="0.3"/>
 <circle cx="5" cy="24" r="0.8" fill="#C1CEAA" opacity="0.6"/>
 <circle cx="27" cy="17" r="0.7" fill="#C1CEAA" opacity="0.55"/>
 <circle cx="3" cy="18" r="0.5" fill="#C1CEAA" opacity="0.5"/>
 <circle cx="29" cy="24" r="0.6" fill="#C1CEAA" opacity="0.5"/>
</svg>