<svg xmlns="http://www.w3.org/2000/svg" width="32" height="40" viewBox="0 0 32 40" fill="none">
  <path d="M16 38V18" stroke="#E8B960" stroke-width="2" stroke-linecap="round"/>
  <!-- Petals -->
  <ellipse cx="16" cy="5" rx="2" ry="5" fill="#E8B960" opacity="0.8"/>
  <ellipse cx="10" cy="7" rx="1.8" ry="4.5" fill="#E8B960" opacity="0.75" transform="rotate(30 10 7)"/>
  <ellipse cx="22" cy="7" rx="1.8" ry="4.5" fill="#E8B960" opacity="0.75" transform="rotate(-30 22 7)"/>
  <ellipse cx="7" cy="12" rx="1.6" ry="4" fill="#E8B960" opacity="0.7" transform="rotate(60 7 12)"/>
  <ellipse cx="25" cy="12" rx="1.6" ry="4" fill="#E8B960" opacity="0.7" transform="rotate(-60 25 12)"/>
  <ellipse cx="8" cy="17" rx="1.5" ry="3.5" fill="#E8B960" opacity="0.65" transform="rotate(80 8 17)"/>
  <ellipse cx="24" cy="17" rx="1.5" ry="3.5" fill="#E8B960" opacity="0.65" transform="rotate(-80 24 17)"/>
  <!-- Petal highlights -->
  <ellipse cx="16" cy="6" rx="1" ry="3" fill="#F0D48A" opacity="0.45"/>
  <ellipse cx="11" cy="7.5" rx="0.9" ry="2.5" fill="#F0D48A" opacity="0.4" transform="rotate(30 11 7.5)"/>
  <ellipse cx="21" cy="7.5" rx="0.9" ry="2.5" fill="#F0D48A" opacity="0.4" transform="rotate(-30 21 7.5)"/>
  <!-- Center disc -->
  <circle cx="16" cy="12" r="4" fill="#E8B960"/>
  <circle cx="16" cy="12" r="2.2" fill="#F0D48A"/>
  <circle cx="16" cy="11.5" r="1" fill="#E8B960" opacity="0.4"/>
  <!-- Side leaves -->
  <path d="M14 28Q10 26 8 28Q10 29 14 29Z" fill="#E8B960" opacity="0.4"/>
  <path d="M18 30Q22 28 24 30Q22 31 18 31Z" fill="#E8B960" opacity="0.4"/>
</svg>
