<svg xmlns="http://www.w3.org/2000/svg" width="32" height="40" viewBox="0 0 32 40" fill="none">
  <!-- Ground plane -->
  <ellipse cx="16" cy="37.5" rx="8" ry="1.3" fill="#6B4842" opacity="0.18"/>
  <!-- Shadow pad (back, offset) -->
  <path d="M10.5 32C8.5 29.5 8 26 10.5 24C13 22 19 22 21.5 24C24 26 23.5 29.5 21.5 32C19 34 13 34 10.5 32Z" fill="#6B4842" opacity="0.12"/>
  <!-- Bottom pad (largest, center ~16,30) -->
  <path d="M9 31C7.5 28.5 8 25 10.5 23.5C13 22 19 22 21.5 23.5C24 25 24.5 28.5 23 31C21 33.5 11 33.5 9 31Z" fill="#9C7068" opacity="0.85"/>
  <!-- Bottom pad highlight -->
  <path d="M12 30C11 28 11.5 25.5 13 24.5S17.5 23.5 19 24.5S20.5 28 19.5 30C18 31.5 13.5 31.5 12 30Z" fill="#C49890" opacity="0.3"/>
  <!-- Middle pad (right offset, center ~19,20) -->
  <path d="M14 22.5C12.5 20 13 17 15 15.5C17 14 22 14.5 24 16C26 17.5 25.5 20.5 24 22.5C22 24.5 16 24 14 22.5Z" fill="#9C7068" opacity="0.82"/>
  <!-- Middle pad highlight -->
  <path d="M17 21C16 19.5 16.5 17.5 18 16.5S22 16.5 23 17.5C24 18.5 23.5 20.5 22 21.5C20.5 22.5 18 22.5 17 21Z" fill="#C49890" opacity="0.28"/>
  <!-- Top pad (left offset, center ~13,11) -->
  <path d="M9 13.5C8 11.5 8.5 8.5 10.5 7C12.5 5.5 16.5 6 18 7.5C19.5 9 19 12 17.5 13.5C15.5 15.5 10.5 15.5 9 13.5Z" fill="#9C7068" opacity="0.8"/>
  <!-- Top pad highlight -->
  <path d="M11.5 12.5C10.8 11 11.2 9 12.5 8C13.8 7 16 7.5 17 8.5S17 11 16 12.5C14.5 14 12.5 14 11.5 12.5Z" fill="#C49890" opacity="0.25"/>
  <!-- Bottom pad spines -->
  <path d="M10 25C9.5 24 8.8 23.5 8.5 23" stroke="#6B4842" stroke-width="0.4" stroke-linecap="round" opacity="0.5"/>
  <path d="M22 25.5C22.8 24.8 23.5 24.2 24 24" stroke="#6B4842" stroke-width="0.35" stroke-linecap="round" opacity="0.45"/>
  <path d="M16 22.5C16 22 16.1 21.5 16 21" stroke="#6B4842" stroke-width="0.4" stroke-linecap="round" opacity="0.4"/>
  <!-- Middle pad spines -->
  <path d="M24.5 18C25.2 17.5 25.8 17.2 26 17" stroke="#6B4842" stroke-width="0.4" stroke-linecap="round" opacity="0.45"/>
  <path d="M15 16C14.2 15.5 13.8 15.2 13.5 15" stroke="#6B4842" stroke-width="0.35" stroke-linecap="round" opacity="0.4"/>
  <!-- Top pad spines -->
  <path d="M9.5 9.5C8.8 9 8 8.5 7.5 8.5" stroke="#6B4842" stroke-width="0.4" stroke-linecap="round" opacity="0.5"/>
  <path d="M17.5 8C18.2 7.5 18.8 7.2 19 7" stroke="#6B4842" stroke-width="0.35" stroke-linecap="round" opacity="0.45"/>
  <!-- Areoles -->
  <circle cx="10.5" cy="25.5" r="0.6" fill="#6B4842" opacity="0.3"/>
  <circle cx="21.5" cy="26" r="0.55" fill="#6B4842" opacity="0.28"/>
  <circle cx="24" cy="18.5" r="0.6" fill="#6B4842" opacity="0.28"/>
  <circle cx="9.5" cy="10" r="0.55" fill="#6B4842" opacity="0.3"/>
  <!-- Pad surface texture -->
  <path d="M13 28C14 26.5 17 26 19.5 27" stroke="#6B4842" stroke-width="0.4" stroke-linecap="round" opacity="0.15"/>
  <path d="M18 19.5C19.5 18 21.5 18 22.5 19" stroke="#6B4842" stroke-width="0.35" stroke-linecap="round" opacity="0.13"/>
</svg>
