<svg xmlns="http://www.w3.org/2000/svg" width="32" height="40" viewBox="0 0 32 40" fill="none">
  <!-- Ground plane -->
  <ellipse cx="16" cy="38" rx="5" ry="1.2" fill="#6B8F9E" opacity="0.2"/>
  <!-- Shadow fronds (back layer) -->
  <path d="M7 38C5 32 3 26 6 20C9 14 5 10 8 3" stroke="#6B8F9E" stroke-width="2.5" stroke-linecap="round" opacity="0.15"/>
  <path d="M25 38C27 33 28 27 25 21C22 15 26 10 24 4" stroke="#6B8F9E" stroke-width="2.5" stroke-linecap="round" opacity="0.15"/>
  <!-- Left frond (base) -->
  <path d="M9 38C6 33 4 28 7 22C10 16 6 11 9 4" stroke="#6B8F9E" stroke-width="2" stroke-linecap="round" opacity="0.8"/>
  <path d="M9 38C7 34 5 29 8 24S11 17 8 13C5 9 8 5 9 4" fill="none" stroke="#6B8F9E" stroke-width="3" stroke-linecap="round" opacity="0.25"/>
  <!-- Right frond (base) -->
  <path d="M23 38C26 32 28 26 24 20C20 14 25 8 22 3" stroke="#6B8F9E" stroke-width="2" stroke-linecap="round" opacity="0.75"/>
  <path d="M23 38C25 33 27 27 24 22S21 16 24 11C27 6 23 4 22 3" fill="none" stroke="#6B8F9E" stroke-width="2.8" stroke-linecap="round" opacity="0.2"/>
  <!-- Center frond (thinner, foreground) -->
  <path d="M16 38C14 34 13 30 15 26C17 22 14 18 15 13C16 8 15 5 16 2" stroke="#6B8F9E" stroke-width="1.8" stroke-linecap="round" opacity="0.6"/>
  <!-- Left frond highlight -->
  <path d="M9 30C7 26 6 23 8 19C10 15 8 12 9 8" stroke="#94B3BF" stroke-width="1" stroke-linecap="round" opacity="0.5"/>
  <!-- Right frond highlight -->
  <path d="M23 32C25 28 26 24 24 20C22 16 24 12 23 8" stroke="#94B3BF" stroke-width="1" stroke-linecap="round" opacity="0.45"/>
  <!-- Center frond highlight -->
  <path d="M16 28C15 25 14 22 15 19C16 16 15 13 16 10" stroke="#94B3BF" stroke-width="0.7" stroke-linecap="round" opacity="0.5"/>
  <!-- Wave texture lines -->
  <path d="M6 28C8 27 10 28 12 27" stroke="#6B8F9E" stroke-width="0.4" stroke-linecap="round" opacity="0.2"/>
  <path d="M20 24C22 23 24 24 26 23" stroke="#6B8F9E" stroke-width="0.4" stroke-linecap="round" opacity="0.2"/>
  <path d="M11 18C13 17 15 18 17 17" stroke="#6B8F9E" stroke-width="0.3" stroke-linecap="round" opacity="0.18"/>
  <!-- Small side tendrils -->
  <path d="M8 20C5 18 4 16 5 14" stroke="#6B8F9E" stroke-width="0.8" stroke-linecap="round" opacity="0.4"/>
  <path d="M24 16C27 14 28 12 27 10" stroke="#6B8F9E" stroke-width="0.8" stroke-linecap="round" opacity="0.35"/>
  <!-- Bubbles (varied sizes/opacity) -->
  <circle cx="4" cy="7" r="1.6" fill="#94B3BF" opacity="0.55"/>
  <circle cx="28" cy="11" r="1.1" fill="#94B3BF" opacity="0.45"/>
  <circle cx="14" cy="4" r="0.8" fill="#94B3BF" opacity="0.5"/>
  <circle cx="6" cy="18" r="1.3" fill="#94B3BF" opacity="0.4"/>
  <circle cx="26" cy="6" r="0.6" fill="#94B3BF" opacity="0.35"/>
  <circle cx="19" cy="14" r="0.9" fill="#94B3BF" opacity="0.3"/>
</svg>