<svg xmlns="http://www.w3.org/2000/svg" width="32" height="40" viewBox="0 0 32 40" fill="none">
  <!-- Bamboo culm -->
  <rect x="14" y="2" width="4" height="36" rx="2" fill="#C7956D" opacity="0.8"/>
  <rect x="15" y="3" width="1.5" height="34" rx="0.75" fill="#DDB594" opacity="0.35"/>
  <!-- Nodes -->
  <rect x="13" y="8" width="6" height="2" rx="1" fill="#C7956D"/>
  <rect x="13" y="16" width="6" height="2" rx="1" fill="#C7956D"/>
  <rect x="13" y="24" width="6" height="2" rx="1" fill="#C7956D"/>
  <rect x="13" y="32" width="6" height="2" rx="1" fill="#C7956D"/>
  <!-- Right leaf branch -->
  <path d="M18 8Q22 6 26 2Q22 5 19 8Z" fill="#C7956D" opacity="0.7"/>
  <path d="M18 8Q22 7 27 6Q23 7.5 19 8Z" fill="#C7956D" opacity="0.6"/>
  <!-- Left leaf branch -->
  <path d="M14 16Q10 14 6 10Q10 13 13 16Z" fill="#C7956D" opacity="0.7"/>
  <path d="M14 16Q10 15 5 14Q9 15.5 13 16Z" fill="#C7956D" opacity="0.6"/>
  <!-- Leaf highlights -->
  <path d="M19 8Q22 6.5 24.5 4Q22 6 19.5 8Z" fill="#DDB594" opacity="0.4"/>
  <path d="M13 16Q10 14.5 7.5 12Q10 14 12.5 16Z" fill="#DDB594" opacity="0.4"/>
  <!-- Node highlights -->
  <rect x="14" y="8.3" width="4" height="0.8" rx="0.4" fill="#DDB594" opacity="0.4"/>
  <rect x="14" y="16.3" width="4" height="0.8" rx="0.4" fill="#DDB594" opacity="0.4"/>
</svg>
