<svg xmlns="http://www.w3.org/2000/svg" width="32" height="40" viewBox="0 0 32 40" fill="none">
  <path d="M15 38Q14 28 15 22Q16 16 16 10" stroke="#8B6914" stroke-width="3" stroke-linecap="round"/>
  <path d="M16 36Q17 28 16.5 22" stroke="#B08E3C" stroke-width="1" stroke-linecap="round" opacity="0.4"/>
  <path d="M14 36Q11 38 9 38" stroke="#8B6914" stroke-width="1.5" stroke-linecap="round"/>
  <path d="M17 37Q20 38 22 38" stroke="#8B6914" stroke-width="1.5" stroke-linecap="round"/>
  <path d="M16 10L10 4" stroke="#8B6914" stroke-width="2" stroke-linecap="round"/>
  <path d="M16 10L22 4" stroke="#8B6914" stroke-width="2" stroke-linecap="round"/>
  <path d="M15 18L8 12" stroke="#8B6914" stroke-width="1.5" stroke-linecap="round"/>
  <path d="M16 18L24 12" stroke="#8B6914" stroke-width="1.5" stroke-linecap="round"/>
  <path d="M15 26L11 22" stroke="#8B6914" stroke-width="1.5" stroke-linecap="round"/>
  <path d="M16 26L21 22" stroke="#8B6914" stroke-width="1.5" stroke-linecap="round"/>
  <circle cx="10" cy="4" r="3" fill="#8B6914" opacity="0.55"/>
  <circle cx="22" cy="4" r="3" fill="#8B6914" opacity="0.55"/>
  <circle cx="8" cy="12" r="2.5" fill="#8B6914" opacity="0.5"/>
  <circle cx="24" cy="12" r="2.5" fill="#8B6914" opacity="0.5"/>
  <circle cx="11" cy="22" r="2" fill="#8B6914" opacity="0.45"/>
  <circle cx="21" cy="22" r="2" fill="#8B6914" opacity="0.45"/>
  <circle cx="11" cy="3.5" r="1.5" fill="#B08E3C" opacity="0.4"/>
  <circle cx="22.5" cy="3.5" r="1.5" fill="#B08E3C" opacity="0.4"/>
  <circle cx="8.5" cy="11.5" r="1.2" fill="#B08E3C" opacity="0.35"/>
  <circle cx="24" cy="11.5" r="1.2" fill="#B08E3C" opacity="0.35"/>
  <path d="M4 8Q6 7 8 8" stroke="#B08E3C" stroke-width="0.7" stroke-linecap="round" fill="none" opacity="0.4"/>
  <path d="M24 6Q26 5 28 6" stroke="#B08E3C" stroke-width="0.7" stroke-linecap="round" fill="none" opacity="0.35"/>
</svg>
