<svg xmlns="http://www.w3.org/2000/svg" width="32" height="40" viewBox="0 0 32 40" fill="none">
 <ellipse cx="16" cy="38" rx="4" ry="1" fill="#8B6914" opacity="0.2"/>
 <path d="M14 37C11 38 8 38 6 39" stroke="#8B6914" stroke-width="1.2" stroke-linecap="round" opacity="0.5"/>
 <path d="M18 37C21 38 24 39 26 38" stroke="#8B6914" stroke-width="1" stroke-linecap="round" opacity="0.4"/>
 <path d="M15 38C15 32 16 26 16 22C16 18 16 14 16 10" stroke="#8B6914" stroke-width="3" stroke-linecap="round"/>
 <path d="M16 36C16 30 16 24 16 18" stroke="#B08E3C" stroke-width="0.8" stroke-linecap="round" opacity="0.3"/>
 <path d="M16 10C14 8 11 5 9 3" stroke="#8B6914" stroke-width="1.8" stroke-linecap="round" opacity="0.8"/>
 <path d="M16 10C18 8 21 5 23 4" stroke="#8B6914" stroke-width="1.6" stroke-linecap="round" opacity="0.8"/>
 <path d="M16 18C13 15 10 13 7 11" stroke="#8B6914" stroke-width="1.5" stroke-linecap="round" opacity="0.7"/>
 <path d="M16 18C19 15 22 13 25 12" stroke="#8B6914" stroke-width="1.3" stroke-linecap="round" opacity="0.7"/>
 <path d="M15 26C13 24 12 23 10 22" stroke="#8B6914" stroke-width="1.2" stroke-linecap="round" opacity="0.7"/>
 <path d="M16 26C18 24 20 23 22 23" stroke="#8B6914" stroke-width="1" stroke-linecap="round" opacity="0.7"/>
 <path d="M9 3C7 2 5 3 6 4C7 6 10 6 11 4Z" fill="#8B6914" opacity="0.55"/>
 <path d="M9 3C8 3 7 4 8 5C9 5 10 4 9 3Z" fill="#B08E3C" opacity="0.4"/>
 <path d="M23 2C21 2 20 3 21 5C22 6 24 5 25 3Z" fill="#8B6914" opacity="0.55"/>
 <path d="M23 3C22 3 21 4 22 5C23 5 24 4 23 3Z" fill="#B08E3C" opacity="0.38"/>
 <path d="M7 10C6 9 4 10 5 12C6 13 8 14 9 12Z" fill="#8B6914" opacity="0.5"/>
 <path d="M7 11C6 11 5 11 6 12C7 13 8 12 7 11Z" fill="#B08E3C" opacity="0.35"/>
 <path d="M25 11C24 10 22 11 23 13C24 14 26 13 25 11Z" fill="#8B6914" opacity="0.48"/>
 <path d="M10 21C9 21 8 22 9 23C10 23 11 22 10 21Z" fill="#8B6914" opacity="0.45"/>
 <path d="M22 22C21 22 20 22 21 23C22 23 23 22 22 22Z" fill="#8B6914" opacity="0.43"/>
</svg>