<svg xmlns="http://www.w3.org/2000/svg" width="32" height="40" viewBox="0 0 32 40" fill="none">
  <path d="M16 38V10" stroke="#5B9279" stroke-width="2" stroke-linecap="round"/>
  <path d="M16 10C16 10 12 8 12 6C12 4 14 4 16 6" stroke="#5B9279" stroke-width="1.5" stroke-linecap="round"/>
  <path d="M16 16C18 14 22 14 22 12C22 10 20 10 18 12" stroke="#5B9279" stroke-width="1.5" stroke-linecap="round"/>
  <path d="M16 22C14 20 10 20 10 18C10 16 12 16 14 18" stroke="#5B9279" stroke-width="1.5" stroke-linecap="round"/>
  <path d="M16 28C18 26 22 26 22 24C22 22 20 22 18 24" stroke="#5B9279" stroke-width="1.5" stroke-linecap="round"/>
  <circle cx="12" cy="5" r="1" fill="#5B9279" opacity="0.5"/>
  <circle cx="23" cy="11" r="1" fill="#5B9279" opacity="0.5"/>
  <circle cx="9" cy="17" r="1" fill="#5B9279" opacity="0.5"/>
  <circle cx="23" cy="23" r="1" fill="#5B9279" opacity="0.5"/>
</svg>
